<svg xmlns="http://www.w3.org/2000/svg" fill="none" viewBox="0 0 348 348"><defs><path id="a" d="M87.118 137.306h171.396v71.02H87.118z"/></defs><path stroke="#000" stroke-width="2" d="M5.079 5.776h336.913v337.67H5.08z"/><path stroke="#000" stroke-width="2" d="M282.734 40.554c0-8.376 6.966-15.165 15.56-15.165 4.126 0 8.084 1.597 11.001 4.441 2.918 2.844 4.558 6.702 4.558 10.724 0 8.376-6.966 15.165-15.56 15.165-8.593 0-15.559-6.79-15.559-15.165z"/><path fill="#fff" stroke="#000" stroke-width="2" stroke-miterlimit="10" d="M78.359 131.388h191.282v85.224H78.359z"/><g style="line-height:1.25" aria-label="Go!" font-weight="400" font-size="64" font-family="sans-serif" letter-spacing="0" word-spacing="0" fill="#000" text-anchor="middle"><path style="text-align:center" d="M164.969 193.766q-3.813 1.75-8.344 3.062-4.5 1.281-8.719 1.281-5.437 0-9.969-1.5-4.53-1.5-7.718-4.5-3.219-3.03-4.969-7.562-1.75-4.563-1.75-10.656 0-11.157 6.5-17.594 6.531-6.469 17.906-6.469 3.969 0 8.094.969 4.156.937 8.938 3.219v7.343h-.563q-.969-.75-2.813-1.968-1.843-1.22-3.625-2.032-2.156-.968-4.906-1.593-2.719-.657-6.187-.657-7.813 0-12.375 5.032-4.531 5-4.531 13.562 0 9.031 4.75 14.063 4.75 5 12.937 5 3 0 5.969-.594 3-.594 5.25-1.531v-11.407h-12.469v-5.437h18.594zM205.063 179.766q0 8.53-4.375 13.468-4.375 4.938-11.72 4.938-7.405 0-11.78-4.938-4.344-4.937-4.344-13.468 0-8.532 4.344-13.47 4.375-4.968 11.78-4.968 7.345 0 11.72 4.969 4.375 4.937 4.375 13.469zm-6.063 0q0-6.782-2.656-10.063-2.656-3.312-7.375-3.312-4.781 0-7.438 3.312-2.625 3.281-2.625 10.063 0 6.562 2.656 9.968 2.657 3.375 7.407 3.375 4.687 0 7.344-3.343 2.687-3.375 2.687-10zM224.5 150.672l-.813 33.719h-5.312l-.875-33.72zm-.313 46.531h-6.375v-6.594h6.375z"/></g></svg>